<svg id="svg" version="1.1" xmlns="http://www.w3.org/2000/svg" xmlns:xlink="http://www.w3.org/1999/xlink" width="400" height="400" viewBox="0, 0, 400,400"><g id="svgg"><path id="path0" d="M195.821 76.829 C 173.237 78.183,147.704 85.742,128.918 96.635 C 75.767 127.455,61.559 177.865,89.807 235.400 C 111.764 280.121,153.964 305.967,205.071 305.996 C 214.224 306.001,214.246 305.998,238.659 301.986 C 261.347 298.258,276.417 303.202,288.687 318.400 C 294.770 325.934,296.834 327.951,300.164 329.617 C 309.553 334.315,316.099 326.345,318.233 307.617 C 319.972 292.365,320.533 288.485,322.185 280.296 C 323.172 275.403,324.780 268.250,325.758 264.400 C 326.736 260.550,328.797 252.450,330.339 246.400 C 339.264 211.378,340.796 193.342,336.604 172.600 C 329.439 137.142,302.839 106.388,264.200 88.890 C 243.130 79.348,220.470 75.352,195.821 76.829 M150.277 175.400 C 156.476 177.241,162.010 184.921,161.995 191.662 C 161.961 206.951,143.331 215.000,132.478 204.413 C 119.071 191.335,132.149 170.017,150.277 175.400 M208.889 174.984 C 217.931 176.900,223.762 185.910,221.993 195.234 C 219.146 210.249,198.951 214.310,190.449 201.578 C 181.649 188.400,193.250 171.670,208.889 174.984 M266.145 174.996 C 279.368 177.797,284.113 194.989,274.242 204.325 C 267.344 210.849,256.640 210.883,250.100 204.403 C 237.395 191.817,248.602 171.279,266.145 174.996 " stroke="none" fill="#ccdccc" fill-rule="evenodd"></path><path id="path1" d="M0.000 200.000 L 0.000 400.000 200.000 400.000 L 400.000 400.000 400.000 200.000 L 400.000 0.000 200.000 0.000 L 0.000 0.000 0.000 200.000 M222.200 76.621 C 261.733 80.753,300.758 103.741,321.653 135.204 C 337.244 158.681,342.519 184.142,338.018 214.200 C 336.443 224.716,334.106 235.159,328.261 257.800 C 322.944 278.394,321.059 288.128,319.621 302.400 C 317.483 323.633,313.390 331.589,304.600 331.597 C 299.936 331.602,295.751 328.390,288.188 319.000 C 275.609 303.383,261.686 298.997,237.400 303.000 C 235.420 303.326,229.840 304.266,225.000 305.088 L 216.200 306.583 204.400 306.574 C 149.874 306.532,106.681 277.784,85.078 227.157 C 59.297 166.739,82.561 114.113,147.000 87.086 C 152.156 84.923,164.851 80.984,171.072 79.617 C 188.169 75.861,205.311 74.856,222.200 76.621 M140.400 175.769 C 131.377 177.766,125.686 187.969,128.622 196.885 C 133.898 212.908,156.340 212.092,160.603 195.723 C 163.742 183.673,152.931 172.995,140.400 175.769 M200.800 175.773 C 190.478 178.076,185.318 189.600,190.193 199.464 C 196.018 211.251,213.573 211.473,219.487 199.834 C 226.205 186.612,215.278 172.543,200.800 175.773 M257.946 175.776 C 248.019 177.952,242.644 189.856,247.318 199.313 C 252.249 209.290,265.864 211.629,273.673 203.842 C 285.841 191.708,274.837 172.073,257.946 175.776 " stroke="none" fill="#fcfcfb" fill-rule="evenodd"></path><path id="path2" d="M197.400 76.376 C 195.420 76.499,198.930 76.600,205.200 76.600 C 211.470 76.600,215.430 76.486,214.000 76.347 C 210.914 76.046,202.448 76.061,197.400 76.376 M187.800 77.202 C 187.119 77.376,187.985 77.418,189.800 77.298 C 191.560 77.183,193.075 77.023,193.167 76.944 C 193.475 76.677,189.012 76.891,187.800 77.202 M217.633 76.944 C 217.725 77.024,219.420 77.185,221.400 77.303 C 223.848 77.449,224.488 77.410,223.400 77.182 C 221.820 76.850,217.310 76.665,217.633 76.944 M182.000 78.007 C 181.379 78.211,181.909 78.251,183.400 78.112 C 184.720 77.989,185.875 77.824,185.967 77.744 C 186.289 77.465,182.988 77.684,182.000 78.007 M225.633 77.747 C 225.725 77.828,226.970 77.993,228.400 78.115 C 230.038 78.254,230.556 78.218,229.800 78.015 C 228.578 77.689,225.330 77.480,225.633 77.747 M177.200 78.813 C 176.554 79.029,176.980 79.066,178.400 78.919 C 179.610 78.794,180.675 78.626,180.767 78.546 C 181.087 78.265,178.191 78.483,177.200 78.813 M231.233 78.544 C 231.325 78.624,232.210 78.796,233.200 78.927 C 234.402 79.086,234.734 79.047,234.200 78.810 C 233.436 78.472,230.886 78.243,231.233 78.544 M173.200 79.600 C 171.856 80.031,173.308 80.031,175.000 79.600 C 176.078 79.326,176.098 79.294,175.200 79.287 C 174.650 79.283,173.750 79.424,173.200 79.600 M237.800 79.975 C 239.340 80.367,242.640 81.267,245.134 81.976 C 247.628 82.685,249.744 83.189,249.837 83.096 C 250.108 82.825,236.956 79.215,235.800 79.244 C 235.360 79.255,236.260 79.584,237.800 79.975 M169.600 80.406 C 169.178 80.682,169.415 80.723,170.400 80.542 C 172.125 80.225,172.451 79.998,171.167 80.006 C 170.635 80.009,169.930 80.189,169.600 80.406 M166.200 81.219 C 165.642 81.471,165.885 81.507,167.000 81.338 C 167.880 81.204,168.675 81.028,168.767 80.947 C 169.110 80.644,166.968 80.871,166.200 81.219 M162.266 82.274 C 161.203 82.600,160.409 82.942,160.503 83.036 C 160.596 83.130,161.737 82.863,163.036 82.443 C 164.336 82.023,165.130 81.681,164.800 81.682 C 164.470 81.683,163.330 81.949,162.266 82.274 M153.861 84.995 C 151.535 85.801,150.204 86.416,150.833 86.394 C 151.384 86.375,157.690 84.055,157.200 84.051 C 156.870 84.049,155.368 84.474,153.861 84.995 M257.400 85.984 C 260.527 87.285,262.539 88.002,262.200 87.696 C 261.675 87.222,257.621 85.593,257.047 85.625 C 256.801 85.639,256.960 85.800,257.400 85.984 M147.323 87.345 C 144.498 88.536,144.054 89.084,146.800 87.992 C 150.451 86.539,150.637 86.450,150.000 86.460 C 149.670 86.465,148.465 86.864,147.323 87.345 M263.772 88.666 C 265.389 89.542,267.600 90.448,267.600 90.235 C 267.600 90.033,263.232 87.992,262.852 88.016 C 262.713 88.025,263.127 88.318,263.772 88.666 M142.500 89.434 C 141.785 89.746,141.200 90.094,141.200 90.207 C 141.200 90.415,144.006 89.327,144.346 88.987 C 144.686 88.647,143.820 88.857,142.500 89.434 M138.900 91.034 C 138.185 91.346,137.600 91.694,137.600 91.807 C 137.600 92.015,140.406 90.927,140.746 90.587 C 141.086 90.247,140.220 90.457,138.900 91.034 M268.033 90.549 C 268.445 90.917,270.800 92.000,270.800 91.821 C 270.800 91.590,268.582 90.400,268.153 90.400 C 267.996 90.400,267.942 90.467,268.033 90.549 M272.833 92.958 C 273.253 93.356,276.953 95.251,276.600 94.887 C 276.137 94.410,273.298 92.800,272.921 92.800 C 272.781 92.800,272.742 92.871,272.833 92.958 M129.725 95.731 C 126.980 97.410,126.460 98.023,129.000 96.585 C 131.615 95.105,132.670 94.393,132.189 94.431 C 131.975 94.447,130.866 95.032,129.725 95.731 M277.400 95.490 C 277.620 95.700,278.520 96.276,279.400 96.770 C 280.280 97.265,280.640 97.370,280.200 97.004 C 279.306 96.261,276.772 94.891,277.400 95.490 M124.900 98.626 C 123.965 99.187,123.200 99.740,123.200 99.855 C 123.200 100.071,125.899 98.538,126.580 97.936 C 127.267 97.328,126.627 97.591,124.900 98.626 M281.200 97.734 C 281.200 97.823,282.860 98.949,284.890 100.235 C 286.919 101.521,289.754 103.466,291.190 104.556 C 292.625 105.646,293.450 106.138,293.021 105.650 C 291.858 104.325,281.200 97.188,281.200 97.734 M116.505 104.125 C 115.793 104.606,115.208 105.144,115.205 105.320 C 115.202 105.497,115.830 105.160,116.600 104.573 C 117.370 103.986,118.000 103.436,118.000 103.353 C 118.000 103.127,117.919 103.169,116.505 104.125 M112.844 107.004 C 111.878 107.772,111.248 108.393,111.444 108.385 C 111.816 108.369,115.149 105.613,114.800 105.610 C 114.690 105.609,113.810 106.236,112.844 107.004 M294.000 106.530 C 294.000 106.630,295.947 108.336,298.326 110.320 C 300.705 112.305,305.155 116.509,308.214 119.664 C 311.274 122.819,313.030 124.500,312.116 123.400 C 308.501 119.046,294.000 105.543,294.000 106.530 M108.132 110.885 C 106.850 112.031,105.725 113.021,105.633 113.085 C 105.542 113.148,105.542 113.270,105.633 113.356 C 105.725 113.442,106.966 112.452,108.391 111.156 C 109.817 109.860,110.866 108.800,110.724 108.800 C 110.581 108.800,109.415 109.738,108.132 110.885 M101.185 117.500 C 97.063 121.853,93.615 125.996,91.614 129.000 C 89.698 131.876,90.656 130.806,94.122 126.200 C 95.777 124.000,98.962 120.265,101.199 117.900 C 103.436 115.535,105.179 113.600,105.072 113.600 C 104.966 113.600,103.216 115.355,101.185 117.500 M314.968 127.300 C 315.809 128.345,316.577 129.200,316.675 129.200 C 316.992 129.200,315.317 127.026,314.363 126.200 C 313.855 125.760,314.128 126.255,314.968 127.300 M317.827 131.000 C 319.200 132.800,319.468 132.803,318.304 131.005 C 317.807 130.238,317.256 129.608,317.080 129.605 C 316.903 129.602,317.240 130.230,317.827 131.000 M320.614 134.800 C 322.341 137.406,322.735 137.845,321.872 136.200 C 321.526 135.540,320.773 134.460,320.199 133.800 C 319.531 133.031,319.680 133.390,320.614 134.800 M87.453 135.191 C 86.874 136.067,86.400 136.917,86.400 137.080 C 86.400 137.244,86.642 137.023,86.939 136.589 C 88.241 134.681,88.878 133.600,88.699 133.600 C 88.593 133.600,88.032 134.316,87.453 135.191 M84.579 140.441 C 83.792 142.004,83.214 143.347,83.294 143.427 C 83.373 143.507,84.103 142.228,84.916 140.586 C 85.729 138.944,86.307 137.600,86.202 137.600 C 86.096 137.600,85.366 138.878,84.579 140.441 M323.005 138.565 C 323.389 139.206,324.059 140.331,324.492 141.065 C 324.925 141.799,325.363 142.400,325.465 142.400 C 325.744 142.400,324.079 139.543,323.133 138.400 L 322.305 137.400 323.005 138.565 M327.485 146.584 C 328.519 148.666,329.429 150.304,329.507 150.226 C 329.685 150.049,326.065 142.800,325.799 142.800 C 325.692 142.800,326.451 144.503,327.485 146.584 M80.955 148.300 C 80.834 148.685,80.570 149.413,80.367 149.919 C 80.165 150.424,80.011 151.054,80.025 151.319 C 80.039 151.583,80.238 151.350,80.466 150.800 C 81.097 149.280,81.567 147.600,81.360 147.600 C 81.258 147.600,81.076 147.915,80.955 148.300 M330.207 152.279 C 330.807 153.714,331.200 154.362,331.200 153.916 C 331.200 153.484,329.985 150.800,329.789 150.800 C 329.679 150.800,329.867 151.466,330.207 152.279 M78.237 156.532 C 77.887 157.737,77.614 158.965,77.631 159.262 C 77.647 159.558,78.003 158.641,78.421 157.223 C 78.838 155.806,79.111 154.578,79.027 154.494 C 78.943 154.410,78.587 155.327,78.237 156.532 M332.251 157.174 C 332.627 158.639,333.571 160.686,333.555 160.000 C 333.547 159.670,333.194 158.680,332.771 157.800 C 332.348 156.920,332.114 156.638,332.251 157.174 M77.056 160.884 C 76.921 161.388,76.827 162.160,76.846 162.600 C 76.865 163.040,77.045 162.698,77.246 161.840 C 77.636 160.178,77.470 159.340,77.056 160.884 M334.644 164.200 C 334.973 165.671,335.202 165.990,335.194 164.967 C 335.191 164.545,335.005 163.930,334.782 163.600 C 334.485 163.162,334.448 163.324,334.644 164.200 M76.253 164.836 C 76.114 165.531,76.021 166.572,76.047 167.150 C 76.072 167.728,76.255 167.227,76.452 166.039 C 76.837 163.721,76.673 162.734,76.253 164.836 M335.268 166.400 C 335.288 167.439,335.918 169.146,335.932 168.200 C 335.938 167.760,335.789 167.040,335.600 166.600 C 335.389 166.110,335.261 166.032,335.268 166.400 M75.454 170.656 C 75.124 173.068,75.180 186.870,75.530 189.200 C 75.678 190.190,75.800 186.005,75.800 179.900 C 75.800 173.795,75.779 168.800,75.754 168.800 C 75.729 168.800,75.594 169.635,75.454 170.656 M336.262 170.600 C 336.396 171.480,336.572 172.275,336.653 172.367 C 336.956 172.710,336.729 170.568,336.381 169.800 C 336.129 169.242,336.093 169.485,336.262 170.600 M337.072 174.600 C 337.199 175.700,337.369 176.675,337.451 176.767 C 337.732 177.082,337.520 174.599,337.180 173.600 C 336.951 172.926,336.916 173.251,337.072 174.600 M141.400 174.765 C 140.466 174.912,141.715 175.016,144.400 175.016 C 147.462 175.017,148.465 174.921,147.400 174.731 C 145.543 174.400,143.654 174.411,141.400 174.765 M203.233 174.548 C 203.325 174.629,204.750 174.796,206.400 174.919 C 208.624 175.084,208.986 175.052,207.800 174.794 C 206.199 174.446,202.919 174.269,203.233 174.548 M259.000 174.765 C 258.066 174.912,259.315 175.016,262.000 175.016 C 265.062 175.017,266.065 174.921,265.000 174.731 C 263.143 174.400,261.254 174.411,259.000 174.765 M200.900 175.076 C 201.285 175.176,201.915 175.176,202.300 175.076 C 202.685 174.975,202.370 174.893,201.600 174.893 C 200.830 174.893,200.515 174.975,200.900 175.076 M150.937 175.959 C 153.536 177.021,156.202 179.156,158.109 181.703 C 160.078 184.332,160.322 184.553,159.362 182.839 C 157.645 179.772,152.955 175.970,150.200 175.411 C 149.460 175.261,149.743 175.471,150.937 175.959 M210.000 175.484 C 210.330 175.605,211.185 175.941,211.900 176.232 C 212.615 176.522,213.200 176.669,213.200 176.559 C 213.200 176.274,210.526 175.194,209.913 175.232 C 209.580 175.252,209.611 175.341,210.000 175.484 M268.523 175.989 C 270.763 176.864,272.707 178.276,275.144 180.796 L 276.887 182.600 275.547 180.863 C 273.504 178.216,268.927 175.153,267.113 175.219 C 266.831 175.229,267.465 175.576,268.523 175.989 M195.578 177.135 C 192.342 179.201,188.819 183.756,188.258 186.600 C 188.033 187.743,188.041 187.752,188.443 186.800 C 190.335 182.312,192.843 179.112,195.846 177.352 C 197.365 176.462,197.922 176.000,197.478 176.000 C 197.411 176.000,196.556 176.511,195.578 177.135 M253.500 176.629 C 252.005 177.440,252.096 177.778,253.600 177.000 C 254.260 176.659,254.800 176.294,254.800 176.190 C 254.800 175.932,254.757 175.947,253.500 176.629 M214.800 177.863 C 216.565 179.286,217.514 180.235,218.937 182.000 C 219.557 182.770,219.867 183.000,219.624 182.511 C 219.054 181.360,215.440 177.746,214.289 177.176 C 213.800 176.933,214.030 177.243,214.800 177.863 M337.891 179.800 C 338.011 181.340,338.175 182.675,338.255 182.767 C 338.522 183.073,338.309 179.416,337.989 178.200 C 337.798 177.472,337.759 178.102,337.891 179.800 M132.191 179.609 C 131.112 180.704,130.335 181.600,130.462 181.600 C 130.785 181.600,134.445 177.911,134.283 177.750 C 134.211 177.677,133.269 178.514,132.191 179.609 M249.791 179.609 C 248.712 180.704,247.935 181.600,248.062 181.600 C 248.385 181.600,252.045 177.911,251.883 177.750 C 251.811 177.677,250.869 178.514,249.791 179.609 M276.803 182.890 C 276.801 183.050,277.159 183.770,277.599 184.490 C 278.038 185.211,278.396 185.620,278.396 185.400 C 278.395 185.180,278.037 184.460,277.600 183.800 C 277.163 183.140,276.804 182.731,276.803 182.890 M128.481 184.879 C 128.035 185.826,127.569 187.230,127.445 188.000 C 127.307 188.858,127.512 188.503,127.973 187.085 C 128.388 185.812,128.949 184.503,129.220 184.175 C 129.492 183.848,129.619 183.486,129.503 183.369 C 129.387 183.253,128.927 183.933,128.481 184.879 M246.252 184.546 C 245.327 186.495,245.470 186.924,246.414 185.032 C 246.845 184.169,247.131 183.398,247.051 183.317 C 246.970 183.237,246.611 183.790,246.252 184.546 M220.000 183.887 C 220.000 184.143,220.159 184.451,220.354 184.572 C 221.250 185.125,222.114 190.018,221.895 193.295 C 221.740 195.613,221.776 196.122,222.014 195.000 C 222.551 192.471,222.454 189.528,221.756 187.178 C 221.130 185.069,220.000 182.952,220.000 183.887 M338.600 194.400 C 338.600 200.450,338.719 204.500,338.865 203.400 C 339.213 200.775,339.217 187.505,338.870 185.200 C 338.722 184.210,338.600 188.350,338.600 194.400 M160.806 186.633 C 160.809 187.055,160.995 187.670,161.218 188.000 C 161.515 188.438,161.552 188.276,161.356 187.400 C 161.027 185.929,160.798 185.610,160.806 186.633 M278.406 186.633 C 278.409 187.055,278.595 187.670,278.818 188.000 C 279.115 188.438,279.152 188.276,278.956 187.400 C 278.627 185.929,278.398 185.610,278.406 186.633 M245.029 187.829 C 244.881 188.415,244.838 188.972,244.932 189.066 C 245.027 189.160,245.224 188.758,245.371 188.171 C 245.519 187.585,245.562 187.028,245.468 186.934 C 245.373 186.840,245.176 187.242,245.029 187.829 M187.534 189.847 C 187.453 190.863,187.494 192.618,187.625 193.747 C 187.809 195.330,187.873 194.906,187.901 191.900 C 187.940 187.741,187.775 186.816,187.534 189.847 M161.734 191.600 C 161.734 193.250,161.805 193.925,161.891 193.100 C 161.978 192.275,161.978 190.925,161.891 190.100 C 161.805 189.275,161.734 189.950,161.734 191.600 M279.337 191.800 C 279.339 193.560,279.409 194.230,279.493 193.289 C 279.578 192.349,279.577 190.909,279.491 190.089 C 279.405 189.270,279.336 190.040,279.337 191.800 M126.901 191.400 C 126.905 192.280,126.987 192.593,127.083 192.095 C 127.179 191.598,127.175 190.878,127.075 190.495 C 126.975 190.113,126.896 190.520,126.901 191.400 M76.040 193.233 C 76.062 194.205,76.225 195.450,76.402 196.000 C 76.595 196.600,76.637 195.960,76.506 194.400 C 76.251 191.362,75.982 190.689,76.040 193.233 M244.982 194.825 C 245.165 196.655,246.652 200.681,247.012 200.322 C 247.117 200.216,246.894 199.516,246.515 198.765 C 246.137 198.014,245.596 196.410,245.313 195.200 C 244.808 193.039,244.802 193.032,244.982 194.825 M127.408 195.200 C 127.672 197.272,129.088 200.544,130.350 202.000 C 130.864 202.592,130.691 202.130,129.927 200.865 C 129.217 199.691,128.309 197.531,127.908 196.065 C 127.314 193.895,127.221 193.735,127.408 195.200 M161.049 195.815 C 160.912 196.173,160.815 196.766,160.834 197.133 C 160.853 197.500,161.027 197.269,161.221 196.620 C 161.598 195.358,161.465 194.733,161.049 195.815 M278.629 196.229 C 278.481 196.815,278.438 197.372,278.532 197.466 C 278.627 197.560,278.824 197.158,278.971 196.571 C 279.119 195.985,279.162 195.428,279.068 195.334 C 278.973 195.240,278.776 195.642,278.629 196.229 M188.267 197.000 C 188.553 198.390,189.973 201.360,190.230 201.103 C 190.326 201.007,190.056 200.225,189.631 199.365 C 189.205 198.504,188.669 197.350,188.439 196.800 C 188.044 195.855,188.035 195.866,188.267 197.000 M220.221 199.294 C 219.103 201.662,216.683 204.498,214.200 206.349 C 213.253 207.056,213.208 207.142,213.989 206.760 C 216.605 205.481,222.453 197.920,221.537 197.003 C 221.449 196.916,220.857 197.947,220.221 199.294 M76.828 198.233 C 76.844 198.875,77.016 199.760,77.210 200.200 C 77.447 200.734,77.486 200.402,77.327 199.200 C 77.046 197.080,76.788 196.580,76.828 198.233 M159.829 199.261 C 159.483 199.955,159.200 200.625,159.200 200.750 C 159.200 201.097,160.233 199.494,160.521 198.700 C 160.936 197.555,160.506 197.904,159.829 199.261 M276.797 200.605 C 275.924 202.303,273.479 204.887,271.200 206.519 C 270.233 207.211,270.243 207.212,271.500 206.531 C 273.830 205.270,278.572 199.639,277.884 198.950 C 277.798 198.865,277.309 199.610,276.797 200.605 M247.445 201.200 C 247.953 202.202,250.122 204.811,250.300 204.633 C 250.391 204.542,249.997 203.941,249.424 203.298 C 248.851 202.654,248.102 201.784,247.761 201.364 C 247.420 200.944,247.278 200.870,247.445 201.200 M77.628 202.033 C 77.644 202.565,77.819 203.360,78.019 203.800 C 78.271 204.358,78.307 204.115,78.138 203.000 C 77.855 201.143,77.587 200.636,77.628 202.033 M191.313 202.826 C 192.933 204.987,197.074 208.052,198.280 207.981 C 198.456 207.971,197.746 207.518,196.702 206.975 C 195.658 206.431,193.778 204.955,192.524 203.693 C 191.065 202.226,190.629 201.914,191.313 202.826 M156.418 204.134 L 155.037 205.800 156.718 204.219 C 157.643 203.349,158.400 202.584,158.400 202.519 C 158.400 202.059,157.594 202.716,156.418 204.134 M78.468 205.400 C 78.462 205.840,78.611 206.560,78.800 207.000 C 79.238 208.019,79.238 206.968,78.800 205.600 C 78.543 204.796,78.477 204.757,78.468 205.400 M134.000 205.694 C 134.902 206.661,138.000 208.300,138.000 207.811 C 138.000 207.701,137.327 207.330,136.505 206.986 C 135.683 206.643,134.558 205.970,134.005 205.492 L 133.000 204.623 134.000 205.694 M251.600 205.694 C 252.502 206.661,255.600 208.300,255.600 207.811 C 255.600 207.701,254.927 207.330,254.105 206.986 C 253.283 206.643,252.158 205.970,251.605 205.492 L 250.600 204.623 251.600 205.694 M338.120 208.000 C 338.120 209.210,338.195 209.705,338.287 209.100 C 338.378 208.495,338.378 207.505,338.287 206.900 C 338.195 206.295,338.120 206.790,338.120 208.000 M150.216 207.864 C 149.345 208.178,148.535 208.531,148.417 208.650 C 148.051 209.016,150.542 208.320,151.600 207.761 C 152.878 207.085,152.247 207.132,150.216 207.864 M210.616 207.864 C 209.745 208.178,208.935 208.531,208.817 208.650 C 208.451 209.016,210.942 208.320,212.000 207.761 C 213.278 207.085,212.647 207.132,210.616 207.864 M267.816 207.864 C 266.945 208.178,266.135 208.531,266.017 208.650 C 265.651 209.016,268.142 208.320,269.200 207.761 C 270.478 207.085,269.847 207.132,267.816 207.864 M79.206 208.633 C 79.209 209.055,79.395 209.670,79.618 210.000 C 79.915 210.438,79.952 210.276,79.756 209.400 C 79.427 207.929,79.198 207.610,79.206 208.633 M139.000 208.400 C 139.440 208.589,140.070 208.744,140.400 208.744 C 140.778 208.744,140.704 208.617,140.200 208.400 C 139.760 208.211,139.130 208.056,138.800 208.056 C 138.422 208.056,138.496 208.183,139.000 208.400 M199.400 208.400 C 199.840 208.589,200.470 208.744,200.800 208.744 C 201.178 208.744,201.104 208.617,200.600 208.400 C 200.160 208.211,199.530 208.056,199.200 208.056 C 198.822 208.056,198.896 208.183,199.400 208.400 M256.600 208.400 C 257.040 208.589,257.670 208.744,258.000 208.744 C 258.378 208.744,258.304 208.617,257.800 208.400 C 257.360 208.211,256.730 208.056,256.400 208.056 C 256.022 208.056,256.096 208.183,256.600 208.400 M142.912 209.095 C 143.964 209.177,145.584 209.176,146.512 209.092 C 147.440 209.008,146.580 208.941,144.600 208.942 C 142.620 208.943,141.860 209.012,142.912 209.095 M203.312 209.095 C 204.364 209.177,205.984 209.176,206.912 209.092 C 207.840 209.008,206.980 208.941,205.000 208.942 C 203.020 208.943,202.260 209.012,203.312 209.095 M260.512 209.095 C 261.564 209.177,263.184 209.176,264.112 209.092 C 265.040 209.008,264.180 208.941,262.200 208.942 C 260.220 208.943,259.460 209.012,260.512 209.095 M80.006 211.433 C 80.009 211.855,80.195 212.470,80.418 212.800 C 80.715 213.238,80.752 213.076,80.556 212.200 C 80.227 210.729,79.998 210.410,80.006 211.433 M337.260 214.050 C 337.227 214.628,337.111 215.707,337.001 216.450 L 336.803 217.800 337.224 216.457 C 337.455 215.719,337.572 214.639,337.482 214.057 L 337.320 213.000 337.260 214.050 M80.814 214.002 C 80.800 214.621,82.655 219.989,83.005 220.338 C 83.334 220.667,83.236 220.319,82.011 216.800 C 81.360 214.930,80.821 213.671,80.814 214.002 M336.459 219.000 C 336.420 219.660,336.296 220.650,336.183 221.200 L 335.977 222.200 336.408 221.214 C 336.644 220.672,336.768 219.682,336.683 219.014 L 336.528 217.800 336.459 219.000 M83.245 221.200 C 83.253 221.530,83.606 222.520,84.029 223.400 C 84.452 224.280,84.686 224.562,84.549 224.026 C 84.173 222.561,83.229 220.514,83.245 221.200 M335.440 224.440 C 335.293 225.357,335.252 226.185,335.347 226.280 C 335.442 226.376,335.646 225.710,335.800 224.800 C 335.954 223.890,335.996 223.062,335.893 222.960 C 335.790 222.857,335.587 223.523,335.440 224.440 M84.800 225.284 C 84.800 225.716,86.015 228.400,86.211 228.400 C 86.321 228.400,86.133 227.734,85.793 226.921 C 85.193 225.486,84.800 224.838,84.800 225.284 M334.849 227.400 C 334.816 227.840,334.696 228.650,334.583 229.200 L 334.377 230.200 334.806 229.219 C 335.042 228.679,335.161 227.869,335.072 227.419 C 334.913 226.621,334.907 226.621,334.849 227.400 M86.400 228.884 C 86.400 229.316,87.615 232.000,87.811 232.000 C 87.921 232.000,87.733 231.334,87.393 230.521 C 86.793 229.086,86.400 228.438,86.400 228.884 M334.049 231.000 C 334.016 231.440,333.896 232.250,333.783 232.800 L 333.577 233.800 334.006 232.819 C 334.242 232.279,334.361 231.469,334.272 231.019 C 334.113 230.221,334.107 230.221,334.049 231.000 M88.000 232.541 C 88.000 232.977,91.586 240.000,91.808 240.000 C 91.987 240.000,88.529 232.840,88.154 232.433 C 88.069 232.342,88.000 232.390,88.000 232.541 M333.254 234.667 C 333.225 235.144,333.096 235.864,332.970 236.267 C 332.752 236.961,332.764 236.962,333.196 236.288 C 333.447 235.897,333.575 235.177,333.481 234.688 C 333.309 233.801,333.309 233.801,333.254 234.667 M332.449 237.800 C 332.416 238.240,332.296 239.050,332.183 239.600 L 331.977 240.600 332.406 239.619 C 332.642 239.079,332.761 238.269,332.672 237.819 C 332.513 237.021,332.507 237.021,332.449 237.800 M331.450 242.050 C 331.309 242.753,331.269 243.402,331.359 243.492 C 331.450 243.583,331.648 243.091,331.800 242.400 C 331.952 241.709,331.993 241.059,331.891 240.958 C 331.789 240.856,331.591 241.347,331.450 242.050 M93.600 243.313 C 93.600 243.695,96.450 248.000,96.703 248.000 C 96.807 248.000,96.572 247.505,96.182 246.900 C 94.444 244.208,93.600 243.036,93.600 243.313 M330.452 246.059 C 330.166 247.236,329.835 248.560,329.716 249.000 C 329.598 249.440,329.616 249.692,329.756 249.561 C 330.112 249.227,331.252 244.755,331.098 244.294 C 331.029 244.087,330.738 244.881,330.452 246.059 M97.467 249.606 C 97.859 250.270,98.598 251.305,99.110 251.906 C 99.621 252.508,99.375 251.965,98.563 250.700 C 97.024 248.303,96.228 247.507,97.467 249.606 M329.254 250.667 C 329.225 251.144,329.096 251.864,328.970 252.267 C 328.752 252.961,328.764 252.962,329.196 252.288 C 329.447 251.897,329.575 251.177,329.481 250.688 C 329.309 249.801,329.309 249.801,329.254 250.667 M328.250 254.450 C 328.109 255.153,328.069 255.802,328.159 255.892 C 328.250 255.983,328.448 255.491,328.600 254.800 C 328.752 254.109,328.793 253.459,328.691 253.358 C 328.589 253.256,328.391 253.747,328.250 254.450 M102.038 256.230 C 103.336 258.147,107.424 263.165,107.701 263.182 C 107.867 263.192,106.723 261.625,105.159 259.700 C 102.206 256.064,101.074 254.805,102.038 256.230 M327.252 258.459 C 326.966 259.636,326.635 260.960,326.516 261.400 C 326.398 261.840,326.416 262.092,326.556 261.961 C 326.912 261.627,328.052 257.155,327.898 256.694 C 327.829 256.487,327.538 257.281,327.252 258.459 M326.054 263.067 C 326.025 263.544,325.896 264.264,325.770 264.667 C 325.552 265.361,325.564 265.362,325.996 264.688 C 326.247 264.297,326.375 263.577,326.281 263.088 C 326.109 262.201,326.109 262.201,326.054 263.067 M109.594 265.374 C 112.196 268.408,117.392 273.652,119.400 275.270 C 120.500 276.157,119.813 275.379,117.873 273.541 C 115.932 271.704,112.962 268.748,111.273 266.974 C 109.583 265.200,108.827 264.480,109.594 265.374 M325.254 266.267 C 325.225 266.744,325.096 267.464,324.970 267.867 C 324.752 268.561,324.764 268.562,325.196 267.888 C 325.447 267.497,325.575 266.777,325.481 266.288 C 325.309 265.401,325.309 265.401,325.254 266.267 M324.449 269.400 C 324.416 269.840,324.296 270.650,324.183 271.200 L 323.977 272.200 324.406 271.219 C 324.642 270.679,324.761 269.869,324.672 269.419 C 324.513 268.621,324.507 268.621,324.449 269.400 M323.649 273.000 C 323.616 273.440,323.496 274.250,323.383 274.800 L 323.177 275.800 323.606 274.819 C 323.842 274.279,323.961 273.469,323.872 273.019 C 323.713 272.221,323.707 272.221,323.649 273.000 M322.849 276.600 C 322.816 277.040,322.696 277.850,322.583 278.400 L 322.377 279.400 322.806 278.419 C 323.042 277.879,323.161 277.069,323.072 276.619 C 322.913 275.821,322.907 275.821,322.849 276.600 M121.622 277.069 C 121.645 277.403,126.000 280.983,126.000 280.667 C 126.000 280.574,125.010 279.651,123.800 278.618 C 122.590 277.584,121.610 276.887,121.622 277.069 M322.049 280.600 C 322.016 281.040,321.896 281.850,321.783 282.400 L 321.577 283.400 322.006 282.419 C 322.242 281.879,322.361 281.069,322.272 280.619 C 322.113 279.821,322.107 279.821,322.049 280.600 M126.595 281.191 C 126.848 281.602,135.767 287.660,137.200 288.395 C 137.750 288.677,138.110 288.817,138.000 288.706 C 137.491 288.191,126.407 280.889,126.595 281.191 M321.254 284.800 C 321.219 285.350,321.096 286.250,320.983 286.800 L 320.777 287.800 321.207 286.815 C 321.443 286.274,321.565 285.374,321.478 284.815 L 321.320 283.800 321.254 284.800 M320.233 290.433 C 320.083 291.566,320.041 292.574,320.139 292.672 C 320.237 292.771,320.445 291.928,320.600 290.800 C 320.755 289.672,320.798 288.664,320.694 288.561 C 320.591 288.458,320.384 289.300,320.233 290.433 M139.152 289.499 C 140.398 290.417,149.682 295.193,150.200 295.183 C 150.420 295.179,148.980 294.355,147.000 293.353 C 145.020 292.351,142.230 290.916,140.800 290.165 C 139.370 289.413,138.628 289.114,139.152 289.499 M319.425 296.425 C 319.270 297.994,319.227 299.361,319.329 299.462 C 319.431 299.564,319.643 298.366,319.800 296.800 C 319.957 295.234,320.000 293.867,319.896 293.763 C 319.792 293.658,319.580 294.856,319.425 296.425 M155.060 297.194 C 155.580 297.673,160.367 299.278,160.824 299.125 C 161.045 299.052,159.762 298.516,157.973 297.936 C 156.184 297.355,154.873 297.021,155.060 297.194 M164.400 300.382 C 164.730 300.605,165.345 300.791,165.767 300.794 C 166.790 300.802,166.471 300.573,165.000 300.244 C 164.124 300.048,163.962 300.085,164.400 300.382 M318.872 302.044 C 318.832 303.058,318.715 304.768,318.611 305.844 L 318.422 307.800 318.830 305.839 C 319.055 304.761,319.173 303.051,319.092 302.039 L 318.944 300.200 318.872 302.044 M167.200 301.194 C 167.530 301.411,168.235 301.591,168.767 301.594 C 170.051 301.602,169.725 301.375,168.000 301.058 C 167.015 300.877,166.778 300.918,167.200 301.194 M244.600 301.167 C 243.280 301.295,246.430 301.400,251.600 301.400 C 256.836 301.400,259.760 301.289,258.200 301.150 C 254.775 300.844,247.846 300.852,244.600 301.167 M170.600 302.000 C 171.040 302.189,171.760 302.338,172.200 302.332 C 172.843 302.323,172.804 302.257,172.000 302.000 C 170.632 301.562,169.581 301.562,170.600 302.000 M238.800 302.000 C 237.443 302.286,237.437 302.295,238.600 302.307 C 239.260 302.315,240.250 302.176,240.800 302.000 C 242.112 301.580,240.796 301.580,238.800 302.000 M262.200 302.000 C 262.640 302.189,263.360 302.338,263.800 302.332 C 264.443 302.323,264.404 302.257,263.600 302.000 C 262.232 301.562,261.181 301.562,262.200 302.000 M173.800 302.781 C 174.568 303.129,176.710 303.356,176.367 303.053 C 176.275 302.972,175.480 302.796,174.600 302.662 C 173.485 302.493,173.242 302.529,173.800 302.781 M233.800 302.800 L 231.800 303.074 233.600 303.109 C 234.590 303.128,235.760 302.989,236.200 302.800 C 237.113 302.408,236.662 302.408,233.800 302.800 M265.400 302.800 C 265.840 302.989,266.470 303.144,266.800 303.144 C 267.178 303.144,267.104 303.017,266.600 302.800 C 266.160 302.611,265.530 302.456,265.200 302.456 C 264.822 302.456,264.896 302.583,265.400 302.800 M177.600 303.580 C 178.599 303.920,181.082 304.132,180.767 303.851 C 180.675 303.769,179.700 303.599,178.600 303.472 C 177.251 303.316,176.926 303.351,177.600 303.580 M228.400 303.600 C 227.050 303.884,227.043 303.895,228.200 303.900 C 228.860 303.903,229.940 303.768,230.600 303.600 C 232.260 303.178,230.407 303.178,228.400 303.600 M182.000 304.387 C 182.991 304.717,185.887 304.935,185.567 304.654 C 185.475 304.574,184.410 304.406,183.200 304.281 C 181.780 304.134,181.354 304.171,182.000 304.387 M223.800 304.400 L 222.200 304.686 223.600 304.703 C 224.370 304.713,225.450 304.576,226.000 304.400 C 227.285 303.988,226.099 303.988,223.800 304.400 M270.000 304.189 C 270.000 304.506,272.900 305.633,273.128 305.405 C 273.241 305.292,273.235 305.200,273.116 305.200 C 272.996 305.200,272.246 304.928,271.449 304.595 C 270.652 304.262,270.000 304.079,270.000 304.189 M187.200 305.198 C 188.188 305.516,191.889 305.735,191.567 305.456 C 191.475 305.377,190.230 305.214,188.800 305.094 C 187.240 304.963,186.600 305.005,187.200 305.198 M218.800 305.200 L 217.000 305.480 218.600 305.500 C 219.480 305.511,220.650 305.376,221.200 305.200 C 222.463 304.795,221.402 304.795,218.800 305.200 M194.400 306.060 C 197.363 306.411,213.009 306.424,214.950 306.077 C 215.802 305.925,211.032 305.800,204.350 305.800 C 197.667 305.800,193.190 305.917,194.400 306.060 M273.600 305.779 C 273.600 305.889,274.140 306.259,274.800 306.600 C 275.460 306.941,276.000 307.131,276.000 307.021 C 276.000 306.911,275.460 306.541,274.800 306.200 C 274.140 305.859,273.600 305.669,273.600 305.779 M276.600 307.487 C 276.820 307.709,278.398 308.823,280.107 309.963 C 281.816 311.102,283.435 312.387,283.704 312.817 C 283.972 313.248,284.361 313.600,284.566 313.600 C 285.289 313.600,282.968 311.487,280.200 309.625 C 277.014 307.482,275.998 306.878,276.600 307.487 M318.064 309.450 C 318.029 310.138,317.911 311.308,317.801 312.050 L 317.603 313.400 318.024 312.058 C 318.255 311.320,318.373 310.150,318.286 309.458 L 318.128 308.200 318.064 309.450 M317.249 314.200 C 317.216 314.640,317.096 315.450,316.983 316.000 L 316.777 317.000 317.206 316.019 C 317.442 315.479,317.561 314.669,317.472 314.219 C 317.313 313.421,317.307 313.421,317.249 314.200 M285.929 315.510 C 286.660 316.433,287.470 317.320,287.729 317.479 C 287.988 317.639,287.602 317.014,286.871 316.090 C 286.140 315.167,285.330 314.280,285.071 314.121 C 284.812 313.961,285.198 314.586,285.929 315.510 M316.446 317.667 C 316.421 318.034,316.296 318.664,316.170 319.067 C 315.952 319.762,315.963 319.763,316.397 319.087 C 316.648 318.696,316.773 318.066,316.673 317.687 C 316.511 317.068,316.488 317.066,316.446 317.667 M288.464 318.700 C 288.788 319.085,289.931 320.480,291.005 321.800 C 294.859 326.538,299.320 330.400,300.938 330.400 C 301.166 330.400,300.365 329.805,299.158 329.078 C 296.491 327.472,294.124 325.204,290.834 321.100 C 289.467 319.395,288.242 318.000,288.112 318.000 C 287.982 318.000,288.141 318.315,288.464 318.700 M314.008 324.384 C 311.888 328.909,308.361 331.095,303.789 330.716 C 302.553 330.613,301.795 330.677,302.083 330.860 C 304.077 332.125,309.224 330.809,311.525 328.446 C 313.112 326.817,315.467 322.934,315.095 322.561 C 315.007 322.474,314.518 323.294,314.008 324.384 " stroke="none" fill="#dce4dc" fill-rule="evenodd"></path><path id="path3" d="M196.500 76.291 C 197.325 76.378,198.675 76.378,199.500 76.291 C 200.325 76.205,199.650 76.134,198.000 76.134 C 196.350 76.134,195.675 76.205,196.500 76.291 M212.700 76.282 C 213.195 76.378,214.005 76.378,214.500 76.282 C 214.995 76.187,214.590 76.109,213.600 76.109 C 212.610 76.109,212.205 76.187,212.700 76.282 M216.900 76.676 C 217.285 76.776,217.915 76.776,218.300 76.676 C 218.685 76.575,218.370 76.493,217.600 76.493 C 216.830 76.493,216.515 76.575,216.900 76.676 M306.400 117.400 C 308.481 119.490,310.274 121.200,310.384 121.200 C 310.494 121.200,308.881 119.490,306.800 117.400 C 304.719 115.310,302.926 113.600,302.816 113.600 C 302.706 113.600,304.319 115.310,306.400 117.400 M97.775 120.900 L 96.600 122.200 97.900 121.025 C 99.112 119.930,99.384 119.600,99.075 119.600 C 99.006 119.600,98.421 120.185,97.775 120.900 M203.700 175.087 C 204.305 175.178,205.295 175.178,205.900 175.087 C 206.505 174.995,206.010 174.920,204.800 174.920 C 203.590 174.920,203.095 174.995,203.700 175.087 M249.978 179.900 L 248.600 181.400 250.100 180.022 C 251.496 178.738,251.784 178.400,251.478 178.400 C 251.412 178.400,250.737 179.075,249.978 179.900 M221.731 191.400 C 221.733 192.940,221.805 193.521,221.892 192.691 C 221.979 191.861,221.977 190.601,221.889 189.891 C 221.800 189.181,221.729 189.860,221.731 191.400 M127.324 191.400 C 127.326 192.720,127.401 193.212,127.490 192.493 C 127.579 191.774,127.577 190.694,127.486 190.093 C 127.395 189.492,127.322 190.080,127.324 191.400 M244.920 191.200 C 244.920 192.410,244.995 192.905,245.087 192.300 C 245.178 191.695,245.178 190.705,245.087 190.100 C 244.995 189.495,244.920 189.990,244.920 191.200 M155.978 204.300 L 154.600 205.800 156.100 204.422 C 156.925 203.663,157.600 202.988,157.600 202.922 C 157.600 202.616,157.262 202.904,155.978 204.300 M113.200 269.800 C 113.946 270.570,114.647 271.200,114.757 271.200 C 114.867 271.200,114.346 270.570,113.600 269.800 C 112.854 269.030,112.153 268.400,112.043 268.400 C 111.933 268.400,112.454 269.030,113.200 269.800 M247.900 301.489 C 248.615 301.578,249.785 301.578,250.500 301.489 C 251.215 301.401,250.630 301.328,249.200 301.328 C 247.770 301.328,247.185 301.401,247.900 301.489 M253.500 301.482 C 253.995 301.578,254.805 301.578,255.300 301.482 C 255.795 301.387,255.390 301.309,254.400 301.309 C 253.410 301.309,253.005 301.387,253.500 301.482 M194.100 306.276 C 194.485 306.376,195.115 306.376,195.500 306.276 C 195.885 306.175,195.570 306.093,194.800 306.093 C 194.030 306.093,193.715 306.175,194.100 306.276 M201.900 306.693 C 202.835 306.777,204.365 306.777,205.300 306.693 C 206.235 306.609,205.470 306.540,203.600 306.540 C 201.730 306.540,200.965 306.609,201.900 306.693 " stroke="none" fill="#e7ece4" fill-rule="evenodd"></path><path id="path4" d="M204.100 75.896 C 205.365 75.975,207.435 75.975,208.700 75.896 C 209.965 75.816,208.930 75.751,206.400 75.751 C 203.870 75.751,202.835 75.816,204.100 75.896 M193.300 76.276 C 193.685 76.376,194.315 76.376,194.700 76.276 C 195.085 76.175,194.770 76.093,194.000 76.093 C 193.230 76.093,192.915 76.175,193.300 76.276 M215.905 76.283 C 216.402 76.379,217.122 76.375,217.505 76.275 C 217.887 76.175,217.480 76.096,216.600 76.101 C 215.720 76.105,215.407 76.187,215.905 76.283 M189.905 76.683 C 190.402 76.779,191.122 76.775,191.505 76.675 C 191.887 76.575,191.480 76.496,190.600 76.501 C 189.720 76.505,189.407 76.587,189.905 76.683 M219.500 76.682 C 219.995 76.778,220.805 76.778,221.300 76.682 C 221.795 76.587,221.390 76.509,220.400 76.509 C 219.410 76.509,219.005 76.587,219.500 76.682 M226.900 77.476 C 227.285 77.576,227.915 77.576,228.300 77.476 C 228.685 77.375,228.370 77.293,227.600 77.293 C 226.830 77.293,226.515 77.375,226.900 77.476 M231.000 78.000 C 231.440 78.189,232.160 78.338,232.600 78.332 C 233.243 78.323,233.204 78.257,232.400 78.000 C 231.032 77.562,229.981 77.562,231.000 78.000 M235.000 78.800 C 235.440 78.989,236.070 79.144,236.400 79.144 C 236.778 79.144,236.704 79.017,236.200 78.800 C 235.760 78.611,235.130 78.456,234.800 78.456 C 234.422 78.456,234.496 78.583,235.000 78.800 M167.600 80.400 C 166.776 80.664,166.741 80.726,167.400 80.754 C 167.840 80.773,168.470 80.613,168.800 80.400 C 169.501 79.947,169.014 79.947,167.600 80.400 M274.000 92.979 C 274.000 93.089,274.540 93.459,275.200 93.800 C 275.860 94.141,276.400 94.331,276.400 94.221 C 276.400 94.111,275.860 93.741,275.200 93.400 C 274.540 93.059,274.000 92.869,274.000 92.979 M281.400 97.407 C 281.840 97.766,282.560 98.235,283.000 98.451 L 283.800 98.844 283.000 98.193 C 282.560 97.834,281.840 97.365,281.400 97.149 L 280.600 96.756 281.400 97.407 M290.000 102.946 C 290.000 103.056,290.540 103.530,291.200 104.000 C 291.860 104.470,292.400 104.764,292.400 104.654 C 292.400 104.544,291.860 104.070,291.200 103.600 C 290.540 103.130,290.000 102.836,290.000 102.946 M296.833 108.519 C 296.925 108.585,297.990 109.413,299.200 110.360 L 301.400 112.081 299.400 110.249 C 298.300 109.241,297.235 108.413,297.033 108.408 C 296.832 108.404,296.742 108.454,296.833 108.519 M101.994 116.300 L 97.000 121.400 102.100 116.406 C 106.837 111.767,107.381 111.200,107.094 111.200 C 107.036 111.200,104.741 113.495,101.994 116.300 M303.600 114.110 C 303.600 114.171,304.995 115.566,306.700 117.210 L 309.800 120.200 306.810 117.100 C 304.033 114.221,303.600 113.817,303.600 114.110 M95.759 122.900 C 94.007 124.921,93.487 125.600,93.690 125.600 C 93.807 125.600,94.567 124.790,95.379 123.800 C 96.881 121.966,97.179 121.263,95.759 122.900 M312.799 123.999 C 313.719 125.098,314.681 126.126,314.936 126.283 C 315.191 126.439,314.523 125.540,313.451 124.284 C 312.380 123.028,311.418 122.000,311.314 122.000 C 311.210 122.000,311.879 122.899,312.799 123.999 M321.549 135.400 C 321.765 135.840,322.234 136.560,322.593 137.000 L 323.244 137.800 322.851 137.000 C 322.635 136.560,322.166 135.840,321.807 135.400 L 321.156 134.600 321.549 135.400 M336.868 171.000 C 336.862 171.440,337.011 172.160,337.200 172.600 C 337.638 173.619,337.638 172.568,337.200 171.200 C 336.943 170.396,336.877 170.357,336.868 171.000 M74.967 179.600 C 74.967 183.890,75.026 185.645,75.098 183.500 C 75.170 181.355,75.170 177.845,75.098 175.700 C 75.026 173.555,74.967 175.310,74.967 179.600 M337.628 175.233 C 337.644 175.765,337.819 176.560,338.019 177.000 C 338.271 177.558,338.307 177.315,338.138 176.200 C 337.855 174.343,337.587 173.836,337.628 175.233 M140.000 175.606 C 139.578 175.882,139.815 175.923,140.800 175.742 C 142.525 175.425,142.851 175.198,141.567 175.206 C 141.035 175.209,140.330 175.389,140.000 175.606 M200.200 175.619 C 199.642 175.871,199.885 175.907,201.000 175.738 C 201.880 175.604,202.675 175.428,202.767 175.347 C 203.110 175.044,200.968 175.271,200.200 175.619 M257.600 175.606 C 257.178 175.882,257.415 175.923,258.400 175.742 C 260.125 175.425,260.451 175.198,259.167 175.206 C 258.635 175.209,257.930 175.389,257.600 175.606 M150.433 176.149 C 150.845 176.517,153.200 177.600,153.200 177.421 C 153.200 177.190,150.982 176.000,150.553 176.000 C 150.396 176.000,150.342 176.067,150.433 176.149 M134.785 178.029 L 133.400 179.258 135.000 178.145 C 135.880 177.533,136.675 176.980,136.767 176.916 C 136.858 176.852,136.762 176.800,136.552 176.800 C 136.342 176.800,135.547 177.353,134.785 178.029 M252.122 178.229 L 251.000 179.258 252.300 178.354 C 253.015 177.857,253.600 177.393,253.600 177.325 C 253.600 177.009,253.158 177.280,252.122 178.229 M194.000 178.860 C 193.230 179.535,192.962 179.905,193.404 179.681 C 194.135 179.311,195.947 177.578,195.562 177.616 C 195.473 177.625,194.770 178.185,194.000 178.860 M216.400 179.800 C 217.146 180.570,217.847 181.200,217.957 181.200 C 218.067 181.200,217.546 180.570,216.800 179.800 C 216.054 179.030,215.353 178.400,215.243 178.400 C 215.133 178.400,215.654 179.030,216.400 179.800 M273.600 179.800 C 274.346 180.570,275.047 181.200,275.157 181.200 C 275.267 181.200,274.746 180.570,274.000 179.800 C 273.254 179.030,272.553 178.400,272.443 178.400 C 272.333 178.400,272.854 179.030,273.600 179.800 M338.493 180.800 C 338.493 181.570,338.575 181.885,338.676 181.500 C 338.776 181.115,338.776 180.485,338.676 180.100 C 338.575 179.715,338.493 180.030,338.493 180.800 M248.912 181.300 C 247.902 182.398,246.402 184.853,246.406 185.400 C 246.408 185.620,246.871 184.990,247.435 184.000 C 247.998 183.010,248.837 181.795,249.299 181.300 C 249.761 180.805,250.049 180.400,249.939 180.400 C 249.829 180.400,249.367 180.805,248.912 181.300 M130.671 182.100 C 129.750 183.334,128.447 185.626,128.908 185.200 C 129.302 184.837,131.949 180.800,131.793 180.800 C 131.709 180.800,131.204 181.385,130.671 182.100 M339.366 194.000 C 339.366 198.070,339.425 199.735,339.498 197.700 C 339.571 195.665,339.571 192.335,339.498 190.300 C 339.425 188.265,339.366 189.930,339.366 194.000 M188.093 189.600 C 188.093 190.370,188.175 190.685,188.276 190.300 C 188.376 189.915,188.376 189.285,188.276 188.900 C 188.175 188.515,188.093 188.830,188.093 189.600 M245.331 191.400 C 245.333 192.940,245.405 193.521,245.492 192.691 C 245.579 191.861,245.577 190.601,245.489 189.891 C 245.400 189.181,245.329 189.860,245.331 191.400 M161.320 191.200 C 161.320 192.410,161.395 192.905,161.487 192.300 C 161.578 191.695,161.578 190.705,161.487 190.100 C 161.395 189.495,161.320 189.990,161.320 191.200 M278.924 191.400 C 278.926 192.720,279.001 193.212,279.090 192.493 C 279.179 191.774,279.177 190.694,279.086 190.093 C 278.995 189.492,278.922 190.080,278.924 191.400 M75.693 193.600 C 75.693 194.370,75.775 194.685,75.876 194.300 C 75.976 193.915,75.976 193.285,75.876 192.900 C 75.775 192.515,75.693 192.830,75.693 193.600 M188.101 193.800 C 188.105 194.680,188.187 194.993,188.283 194.495 C 188.379 193.998,188.375 193.278,188.275 192.895 C 188.175 192.513,188.096 192.920,188.101 193.800 M221.246 194.867 C 221.221 195.234,221.096 195.864,220.970 196.267 C 220.752 196.962,220.763 196.963,221.197 196.287 C 221.448 195.896,221.573 195.266,221.473 194.887 C 221.311 194.268,221.288 194.266,221.246 194.867 M188.832 197.120 C 188.796 197.698,189.907 200.000,190.221 200.000 C 190.331 200.000,190.171 199.505,189.865 198.900 C 189.560 198.295,189.209 197.530,189.086 197.200 C 188.936 196.797,188.853 196.771,188.832 197.120 M219.878 199.005 C 219.512 199.772,219.295 200.400,219.396 200.400 C 219.670 200.400,220.884 197.951,220.701 197.768 C 220.614 197.681,220.244 198.238,219.878 199.005 M276.600 200.000 C 276.259 200.660,276.069 201.200,276.179 201.200 C 276.289 201.200,276.659 200.660,277.000 200.000 C 277.341 199.340,277.531 198.800,277.421 198.800 C 277.311 198.800,276.941 199.340,276.600 200.000 M131.800 203.164 C 132.636 204.129,135.600 206.583,135.600 206.310 C 135.600 206.223,134.565 205.272,133.300 204.197 C 132.035 203.121,131.360 202.656,131.800 203.164 M248.800 202.525 C 248.800 202.594,249.385 203.179,250.100 203.825 L 251.400 205.000 250.225 203.700 C 249.130 202.488,248.800 202.216,248.800 202.525 M338.901 205.400 C 338.905 206.280,338.987 206.593,339.083 206.095 C 339.179 205.598,339.175 204.878,339.075 204.495 C 338.975 204.113,338.896 204.520,338.901 205.400 M78.456 207.600 C 78.456 207.930,78.611 208.560,78.800 209.000 C 79.017 209.504,79.144 209.578,79.144 209.200 C 79.144 208.870,78.989 208.240,78.800 207.800 C 78.583 207.296,78.456 207.222,78.456 207.600 M338.501 208.600 C 338.505 209.480,338.587 209.793,338.683 209.295 C 338.779 208.798,338.775 208.078,338.675 207.695 C 338.575 207.313,338.496 207.720,338.501 208.600 M146.400 208.400 C 145.016 208.691,145.014 208.695,146.200 208.741 C 146.860 208.767,147.670 208.613,148.000 208.400 C 148.666 207.970,148.445 207.970,146.400 208.400 M206.800 208.400 C 205.416 208.691,205.414 208.695,206.600 208.741 C 207.260 208.767,208.070 208.613,208.400 208.400 C 209.066 207.970,208.845 207.970,206.800 208.400 M264.000 208.400 C 262.616 208.691,262.614 208.695,263.800 208.741 C 264.460 208.767,265.270 208.613,265.600 208.400 C 266.266 207.970,266.045 207.970,264.000 208.400 M142.100 208.676 C 142.485 208.776,143.115 208.776,143.500 208.676 C 143.885 208.575,143.570 208.493,142.800 208.493 C 142.030 208.493,141.715 208.575,142.100 208.676 M202.500 208.676 C 202.885 208.776,203.515 208.776,203.900 208.676 C 204.285 208.575,203.970 208.493,203.200 208.493 C 202.430 208.493,202.115 208.575,202.500 208.676 M259.700 208.676 C 260.085 208.776,260.715 208.776,261.100 208.676 C 261.485 208.575,261.170 208.493,260.400 208.493 C 259.630 208.493,259.315 208.575,259.700 208.676 M334.600 230.800 C 334.448 231.491,334.407 232.141,334.509 232.242 C 334.611 232.344,334.809 231.853,334.950 231.150 C 335.091 230.447,335.131 229.798,335.041 229.708 C 334.950 229.617,334.752 230.109,334.600 230.800 M333.049 237.415 C 332.912 237.773,332.815 238.366,332.834 238.733 C 332.853 239.100,333.027 238.869,333.221 238.220 C 333.598 236.958,333.465 236.333,333.049 237.415 M92.349 242.200 C 92.565 242.640,93.034 243.360,93.393 243.800 L 94.044 244.600 93.651 243.800 C 93.435 243.360,92.966 242.640,92.607 242.200 L 91.956 241.400 92.349 242.200 M331.449 243.815 C 331.312 244.173,331.215 244.766,331.234 245.133 C 331.253 245.500,331.427 245.269,331.621 244.620 C 331.998 243.358,331.865 242.733,331.449 243.815 M96.212 248.400 C 96.942 249.729,100.438 254.800,100.624 254.800 C 100.847 254.800,96.924 248.831,96.287 248.200 C 96.015 247.931,95.991 247.997,96.212 248.400 M104.396 259.994 C 105.090 260.871,105.867 261.718,106.123 261.876 C 106.378 262.034,105.893 261.316,105.045 260.281 C 104.197 259.247,103.420 258.400,103.318 258.400 C 103.216 258.400,103.701 259.118,104.396 259.994 M106.400 262.525 C 106.400 262.594,106.985 263.179,107.700 263.825 L 109.000 265.000 107.825 263.700 C 106.730 262.488,106.400 262.216,106.400 262.525 M108.800 265.325 C 108.800 265.394,109.385 265.979,110.100 266.625 L 111.400 267.800 110.225 266.500 C 109.130 265.288,108.800 265.016,108.800 265.325 M325.849 265.815 C 325.712 266.173,325.615 266.766,325.634 267.133 C 325.653 267.500,325.827 267.269,326.021 266.620 C 326.398 265.358,326.265 264.733,325.849 265.815 M324.229 272.629 C 324.081 273.215,324.038 273.772,324.132 273.866 C 324.227 273.960,324.424 273.558,324.571 272.971 C 324.719 272.385,324.762 271.828,324.668 271.734 C 324.573 271.640,324.376 272.042,324.229 272.629 M118.400 275.000 C 119.146 275.770,119.847 276.400,119.957 276.400 C 120.067 276.400,119.546 275.770,118.800 275.000 C 118.054 274.230,117.353 273.600,117.243 273.600 C 117.133 273.600,117.654 274.230,118.400 275.000 M136.400 288.420 C 137.787 289.361,138.578 289.635,137.600 288.836 C 137.050 288.386,136.420 288.017,136.200 288.015 C 135.980 288.013,136.070 288.196,136.400 288.420 M320.093 295.200 C 320.093 295.970,320.175 296.285,320.276 295.900 C 320.376 295.515,320.376 294.885,320.276 294.500 C 320.175 294.115,320.093 294.430,320.093 295.200 M165.400 301.200 C 165.840 301.389,166.470 301.544,166.800 301.544 C 167.178 301.544,167.104 301.417,166.600 301.200 C 166.160 301.011,165.530 300.856,165.200 300.856 C 164.822 300.856,164.896 300.983,165.400 301.200 M243.900 301.882 C 244.395 301.978,245.205 301.978,245.700 301.882 C 246.195 301.787,245.790 301.709,244.800 301.709 C 243.810 301.709,243.405 301.787,243.900 301.882 M257.705 301.887 C 258.314 301.979,259.214 301.977,259.705 301.882 C 260.197 301.787,259.700 301.711,258.600 301.714 C 257.500 301.717,257.097 301.795,257.705 301.887 M319.309 303.200 C 319.309 304.190,319.387 304.595,319.482 304.100 C 319.578 303.605,319.578 302.795,319.482 302.300 C 319.387 301.805,319.309 302.210,319.309 303.200 M233.300 303.476 C 233.685 303.576,234.315 303.576,234.700 303.476 C 235.085 303.375,234.770 303.293,234.000 303.293 C 233.230 303.293,232.915 303.375,233.300 303.476 M191.505 306.283 C 192.002 306.379,192.722 306.375,193.105 306.275 C 193.487 306.175,193.080 306.096,192.200 306.101 C 191.320 306.105,191.007 306.187,191.505 306.283 M197.300 306.687 C 197.905 306.778,198.895 306.778,199.500 306.687 C 200.105 306.595,199.610 306.520,198.400 306.520 C 197.190 306.520,196.695 306.595,197.300 306.687 M208.512 306.695 C 209.564 306.777,211.184 306.776,212.112 306.692 C 213.040 306.608,212.180 306.541,210.200 306.542 C 208.220 306.543,207.460 306.612,208.512 306.695 M282.783 312.500 C 284.441 314.266,284.800 314.584,284.800 314.283 C 284.800 314.219,283.945 313.364,282.900 312.383 L 281.000 310.600 282.783 312.500 M291.200 322.800 C 291.897 323.680,292.557 324.400,292.667 324.400 C 292.777 324.400,292.297 323.680,291.600 322.800 C 290.903 321.920,290.243 321.200,290.133 321.200 C 290.023 321.200,290.503 321.920,291.200 322.800 M311.381 328.900 L 309.800 330.600 311.500 329.019 C 313.081 327.548,313.384 327.200,313.081 327.200 C 313.016 327.200,312.251 327.965,311.381 328.900 M303.500 331.489 C 304.215 331.578,305.385 331.578,306.100 331.489 C 306.815 331.401,306.230 331.328,304.800 331.328 C 303.370 331.328,302.785 331.401,303.500 331.489 " stroke="none" fill="#ecf4ec" fill-rule="evenodd"></path></g></svg>